<svg width="34" height="34" viewBox="0 0 34 34" fill="none" xmlns="http://www.w3.org/2000/svg">
<rect width="34" height="34" rx="8" fill="#F2F2F2"/>
<path d="M17 28.728L10.636 22.364C9.37734 21.1053 8.52019 19.5017 8.17293 17.7558C7.82567 16.01 8.00391 14.2004 8.6851 12.5559C9.36629 10.9114 10.5198 9.50575 11.9999 8.51683C13.4799 7.5279 15.22 7.00006 17 7.00006C18.78 7.00006 20.5201 7.5279 22.0001 8.51683C23.4802 9.50575 24.6337 10.9114 25.3149 12.5559C25.9961 14.2004 26.1743 16.01 25.8271 17.7558C25.4798 19.5017 24.6227 21.1053 23.364 22.364L17 28.728ZM21.95 20.95C22.9289 19.971 23.5955 18.7237 23.8656 17.3659C24.1356 16.008 23.9969 14.6006 23.4671 13.3215C22.9373 12.0425 22.04 10.9493 20.8889 10.1802C19.7378 9.41101 18.3844 9.00049 17 9.00049C15.6156 9.00049 14.2622 9.41101 13.1111 10.1802C11.96 10.9493 11.0628 12.0425 10.5329 13.3215C10.0031 14.6006 9.86442 16.008 10.1345 17.3659C10.4045 18.7237 11.0711 19.971 12.05 20.95L17 25.9L21.95 20.95ZM17 18C16.4696 18 15.9609 17.7893 15.5858 17.4142C15.2107 17.0391 15 16.5304 15 16C15 15.4696 15.2107 14.9608 15.5858 14.5858C15.9609 14.2107 16.4696 14 17 14C17.5304 14 18.0391 14.2107 18.4142 14.5858C18.7893 14.9608 19 15.4696 19 16C19 16.5304 18.7893 17.0391 18.4142 17.4142C18.0391 17.7893 17.5304 18 17 18Z" fill="#474747"/>
</svg>
